<svg width="32" height="32" viewBox="0 0 126.61 126.61" fill="#F3BA2F" xmlns="http://www.w3.org/2000/svg">
  <path d="M38.67 68.25L63.3 43.63l24.63 24.62L100.48 55.7L63.3 18.52L26.12 55.7l12.55 12.55z"/>
  <path d="M13.06 63.3l12.55-12.55L38.16 63.3L25.61 75.85L13.06 63.3z"/>
  <path d="M38.67 58.35L63.3 83l24.63-24.65L100.48 70.9L63.3 108.08L26.12 70.9l12.55-12.55z"/>
  <path d="M113.54 63.3L101 75.85L88.44 63.3L101 50.75l12.54 12.55z"/>
  <path d="M77.83 63.3L63.3 48.77L52.36 59.71L48.77 63.3l14.53 14.53L77.83 63.3z"/>
</svg>